<svg xmlns="http://www.w3.org/2000/svg" width="26.84" height="27.156" viewBox="0 0 26.84 27.156">
  <defs>
    <style>
      .cls-1 {
        fill: #fff;
        fill-rule: evenodd;
      }
    </style>
  </defs>
  <path id="viber.svg" class="cls-1" d="M1239.41,61.994a21.054,21.054,0,0,0-7.99,0,4.664,4.664,0,0,0-2.9,2.814,15.785,15.785,0,0,0,0,6.635,4.66,4.66,0,0,0,2.9,2.814h0.01a0.1,0.1,0,0,1,.08.109v3.225a0.18,0.18,0,0,0,.31.124l1.51-1.572s1.21-1.253,1.43-1.478a0.1,0.1,0,0,1,.08-0.033,21.008,21.008,0,0,0,4.57-.374,4.652,4.652,0,0,0,2.91-2.814,15.785,15.785,0,0,0,0-6.635A4.656,4.656,0,0,0,1239.41,61.994Zm0.04,9.613a2.494,2.494,0,0,1-1.05,1.177,2.564,2.564,0,0,1-.46.147c-0.18-.055-0.35-0.092-0.51-0.159a11.573,11.573,0,0,1-4.33-2.929,11.7,11.7,0,0,1-1.65-2.565c-0.21-.438-0.39-0.892-0.58-1.344a1.187,1.187,0,0,1,.34-1.147,2.71,2.71,0,0,1,.89-0.678,0.571,0.571,0,0,1,.72.172,9.181,9.181,0,0,1,1.11,1.57,0.749,0.749,0,0,1-.21,1.012c-0.08.058-.16,0.126-0.24,0.191a0.82,0.82,0,0,0-.18.192,0.535,0.535,0,0,0-.03.462,4.139,4.139,0,0,0,2.32,2.6,1.124,1.124,0,0,0,.59.146,1.737,1.737,0,0,0,.74-0.657,0.68,0.68,0,0,1,.83-0.037c0.27,0.171.53,0.356,0.79,0.543s0.5,0.362.74,0.57A0.6,0.6,0,0,1,1239.45,71.608Zm-2.11-3.856c-0.1,0-.06,0-0.02,0a0.267,0.267,0,0,1-.27-0.262,2.016,2.016,0,0,0-.05-0.346,0.938,0.938,0,0,0-.36-0.563,0.836,0.836,0,0,0-.28-0.141c-0.14-.038-0.27-0.028-0.4-0.06a0.252,0.252,0,0,1-.2-0.287,0.258,0.258,0,0,1,.27-0.209,1.484,1.484,0,0,1,1.51,1.482,0.734,0.734,0,0,1-.01.21,0.207,0.207,0,0,1-.18.175C1237.36,67.749,1237.36,67.75,1237.34,67.752Zm-0.51-2.259a2.944,2.944,0,0,0-.81-0.251c-0.12-.02-0.25-0.033-0.37-0.05a0.231,0.231,0,0,1-.22-0.265,0.236,0.236,0,0,1,.26-0.23,3.345,3.345,0,0,1,1.4.37,2.886,2.886,0,0,1,1.54,2.228,0.64,0.64,0,0,1,.02.136c0.01,0.112.01,0.225,0.02,0.373a0.484,0.484,0,0,1-.02.151,0.244,0.244,0,0,1-.46.025,0.724,0.724,0,0,1-.02-0.209,2.623,2.623,0,0,0-.33-1.315A2.4,2.4,0,0,0,1236.83,65.493Zm2.74,3.1a0.276,0.276,0,0,1-.26-0.3c-0.02-.308-0.04-0.617-0.08-0.923a3.842,3.842,0,0,0-3.08-3.231c-0.24-.043-0.48-0.054-0.72-0.08a0.361,0.361,0,0,1-.39-0.218,0.265,0.265,0,0,1,.26-0.3c0.04,0,.08,0,0.12,0,2.06,0.058.13,0,.01,0a4.354,4.354,0,0,1,4.26,3.636,10.239,10.239,0,0,1,.12,1.107A0.263,0.263,0,0,1,1239.57,68.59Zm-4.15-13.746a13.578,13.578,0,1,0,13.41,13.578A13.5,13.5,0,0,0,1235.42,54.844Zm8.44,16.952-0.01.022a6.119,6.119,0,0,1-4.11,4l-0.02,0a22.662,22.662,0,0,1-4.3.413c-0.42,0-.85-0.013-1.27-0.037l-1.95,2.051a0.772,0.772,0,0,1-1.33-.542V75.764a6.188,6.188,0,0,1-3.89-3.946V71.8a17.145,17.145,0,0,1,0-7.341V64.434a6.132,6.132,0,0,1,4.12-4l0.02,0a22.566,22.566,0,0,1,8.6,0l0.02,0a6.118,6.118,0,0,1,4.11,4l0.01,0.022A17.468,17.468,0,0,1,1243.86,71.8Z" transform="translate(-1222 -54.844)"/>
</svg>
