<svg xmlns="http://www.w3.org/2000/svg" width="26.81" height="27.156" viewBox="0 0 26.81 27.156">
  <defs>
    <style>
      .cls-1 {
        fill: #fff;
        fill-rule: evenodd;
      }
    </style>
  </defs>
  <path id="vk.svg" class="cls-1" d="M1353.03,54a13.576,13.576,0,1,0,13.42,13.575A13.5,13.5,0,0,0,1353.03,54Zm6.81,15.043c0.62,0.618,1.29,1.2,1.85,1.882a5.31,5.31,0,0,1,.66.964,0.7,0.7,0,0,1-.42,1.079h-2.75a2.112,2.112,0,0,1-1.75-.721c-0.38-.392-0.73-0.809-1.1-1.214a2.823,2.823,0,0,0-.49-0.445,0.575,0.575,0,0,0-.92.225,2.912,2.912,0,0,0-.29,1.3,0.73,0.73,0,0,1-.87.858,7,7,0,0,1-3.94-.856,8.607,8.607,0,0,1-2.64-2.507,34.061,34.061,0,0,1-3.49-6.284c-0.22-.5-0.06-0.76.48-0.77,0.9-.018,1.8-0.015,2.69,0a0.791,0.791,0,0,1,.75.566,17.461,17.461,0,0,0,1.82,3.42,3.1,3.1,0,0,0,.69.766,0.424,0.424,0,0,0,.72-0.212,2.509,2.509,0,0,0,.15-0.718,10.566,10.566,0,0,0-.04-2.513,1.049,1.049,0,0,0-.88-0.959c-0.27-.05-0.23-0.149-0.1-0.3a0.981,0.981,0,0,1,.84-0.425h3.11a0.751,0.751,0,0,1,.67.818v3.492a1,1,0,0,0,.44.892,0.614,0.614,0,0,0,.62-0.307,11.151,11.151,0,0,0,1.75-2.72c0.21-.43.39-0.876,0.56-1.323a0.684,0.684,0,0,1,.71-0.487l2.99,0a1.381,1.381,0,0,1,.26.017,0.526,0.526,0,0,1,.49.8,7.589,7.589,0,0,1-1.19,2.086c-0.5.7-1.03,1.373-1.53,2.075A0.954,0.954,0,0,0,1359.84,69.043Z" transform="translate(-1339.63 -54)"/>
</svg>
