<svg xmlns="http://www.w3.org/2000/svg" width="28" height="28" viewBox="0 0 28 28">
  <defs>
    <style>
      .cls-1 {
        fill: #fff;
        fill-rule: evenodd;
      }
    </style>
  </defs>
  <path id="whatsapp.svg" class="cls-1" d="M1275.16,60.569a7.232,7.232,0,0,0-7.25,7.2,7.117,7.117,0,0,0,1.38,4.222l-0.91,2.674,2.79-.886A7.218,7.218,0,1,0,1275.16,60.569Zm4.23,10.173a2.125,2.125,0,0,1-1.42,1c-0.39.035-.39,0.316-2.54-0.525a8.589,8.589,0,0,1-3.61-3.17,4.022,4.022,0,0,1-.87-2.171,2.364,2.364,0,0,1,.74-1.752,0.788,0.788,0,0,1,.57-0.262c0.14,0,.28.018,0.4,0.018s0.3-.07.48,0.35,0.6,1.454.65,1.559a0.394,0.394,0,0,1,.02.368,1.609,1.609,0,0,1-.21.35c-0.11.123-.23,0.273-0.32,0.368a0.3,0.3,0,0,0-.09.428,6.108,6.108,0,0,0,1.17,1.454,5.839,5.839,0,0,0,1.7,1.042,0.327,0.327,0,0,0,.46-0.053c0.12-.14.53-0.613,0.67-0.823a0.334,0.334,0,0,1,.48-0.105c0.19,0.069,1.23.578,1.44,0.682a1.186,1.186,0,0,1,.41.246A1.764,1.764,0,0,1,1279.39,70.742ZM1275,54a14,14,0,1,0,14,14A13.993,13.993,0,0,0,1275,54Zm0.16,22.341a8.652,8.652,0,0,1-4.17-1.066l-4.78,1.519,1.56-4.6a8.438,8.438,0,0,1-1.24-4.423A8.63,8.63,0,1,1,1275.16,76.336Z" transform="translate(-1261 -54)"/>
</svg>
